<mxfile host="app.diagrams.net" modified="2020-10-07T13:28:41.530Z" agent="5.0 (Windows)" etag="PsP32KzpKan7B5rVgAGn" version="13.7.7" type="github">
  <diagram id="f9QSlEW5APFrY96Uyd0a" name="Page-1">
    <mxGraphModel dx="910" dy="487" grid="1" gridSize="10" guides="1" tooltips="1" connect="1" arrows="1" fold="1" page="1" pageScale="1" pageWidth="1169" pageHeight="827" math="0" shadow="0">
      <root>
        <mxCell id="0" />
        <mxCell id="1" parent="0" />
        <mxCell id="D-7HIj5U4nCGuaE3b1Ya-1" value="Resource materials Borrowing, Lending and extension of lending period" style="swimlane;html=1;childLayout=stackLayout;resizeParent=1;resizeParentMax=0;horizontal=1;startSize=20;horizontalStack=0;" vertex="1" parent="1">
          <mxGeometry x="10" y="10" width="1150" height="380" as="geometry" />
        </mxCell>
        <mxCell id="D-7HIj5U4nCGuaE3b1Ya-2" value="Lane 1" style="swimlane;html=1;startSize=20;horizontal=0;" vertex="1" parent="D-7HIj5U4nCGuaE3b1Ya-1">
          <mxGeometry y="20" width="1150" height="120" as="geometry" />
        </mxCell>
        <mxCell id="D-7HIj5U4nCGuaE3b1Ya-3" value="Lane 2" style="swimlane;html=1;startSize=20;horizontal=0;" vertex="1" parent="D-7HIj5U4nCGuaE3b1Ya-1">
          <mxGeometry y="140" width="1150" height="120" as="geometry" />
        </mxCell>
        <mxCell id="D-7HIj5U4nCGuaE3b1Ya-4" value="Lane 3" style="swimlane;html=1;startSize=20;horizontal=0;" vertex="1" parent="D-7HIj5U4nCGuaE3b1Ya-1">
          <mxGeometry y="260" width="1150" height="120" as="geometry" />
        </mxCell>
      </root>
    </mxGraphModel>
  </diagram>
</mxfile>
